<?xml version="1.0" standalone="no"?>
<!DOCTYPE svg PUBLIC "-//W3C//DTD SVG 20010904//EN"
 "http://www.w3.org/TR/2001/REC-SVG-20010904/DTD/svg10.dtd">
<svg version="1.0" xmlns="http://www.w3.org/2000/svg"
 width="64.000000pt" height="64.000000pt" viewBox="0 0 64.000000 64.000000"
 preserveAspectRatio="xMidYMid meet">
<metadata>
Created by potrace 1.16, written by Peter Selinger 2001-2019
</metadata>
<g transform="translate(0.000000,64.000000) scale(0.100000,-0.100000)"
fill="#000000" stroke="none">
<path d="M311 588 c5 -41 -27 -66 -60 -48 -16 8 -21 6 -26 -11 -16 -50 82
-100 155 -78 51 15 84 50 75 78 -5 17 -10 19 -26 11 -33 -18 -65 7 -60 48 1 7
-10 12 -29 12 -19 0 -30 -5 -29 -12z"/>
<path d="M202 468 c-6 -8 -15 -26 -21 -41 -10 -25 -8 -27 14 -27 48 0 138 -71
183 -144 26 -43 28 -78 7 -96 -33 -27 -12 -30 35 -4 59 32 88 73 96 137 7 50
-8 128 -33 165 l-15 24 -21 -20 c-37 -34 -100 -47 -149 -33 -24 7 -52 22 -64
32 -17 16 -23 17 -32 7z"/>
</g>
</svg>
